# xmcd
#
# Track frame offsets: 
#        150
#        1203
#        9249
#        59253
#        69378
#        71133
#        84633
#        90033
#        100131
#        100860
#        111957
#        112362
#        121623
#        122622
#        133854
#        134367
#        142386
#        143088
#        154941
#        155778
#        167523
#        167955
#        180159
#        180807
#        190014
#        191121
#        204378
#        205107
#        214206
#        214530
#        226005
#        237345
#        238074
#        248901
#        252168
#        263130
#        264183
#        282003
#
# Disc length: 3887 seconds
#
# Revision: 0
# Processed by: cddbd v1.5.2PL0 Copyright (c) Steve Scherf et al.
# Submitted via: ExactAudioCopy v0.95b3
#
DISCID=140f2d26
DTITLE=The Beatles  - The Days In Their Life - Vol.05  FLAC
DYEAR=1900
DGENRE=
TTITLE0=Narrative
TTITLE1=A Hard Day's Night (Peter Sellers)
TTITLE2=Narrative
TTITLE3=I Feel Fine
TTITLE4=Narrative
TTITLE5=She's A Woman
TTITLE6=Narrative
TTITLE7=No Reply
TTITLE8=Narrative
TTITLE9=I'm A Loser
TTITLE10=Narrative
TTITLE11=Baby's In Black
TTITLE12=Narrative
TTITLE13=Rock And Roll Music
TTITLE14=Narrative
TTITLE15=I'll Follow The Sun
TTITLE16=Narrative
TTITLE17=Mr Moonlight
TTITLE18=Narrative
TTITLE19=Kansas CityHey Hey Hey
TTITLE20=Narrative
TTITLE21=Eight Days A Week
TTITLE22=Narrative
TTITLE23=Words Of Love
TTITLE24=Narrative
TTITLE25=Honey Don't
TTITLE26=Narrative
TTITLE27=Every Little Thing
TTITLE28=Narrative
TTITLE29=I Don't Want To Spoil The Party
TTITLE30=NarrativeWhat You're Doing
TTITLE31=Narrative
TTITLE32=Everybody's Trying To Be My Baby
TTITLE33=Narrative
TTITLE34=Nobody I Know (Peter And Gordon)
TTITLE35=Narrative
TTITLE36=1964 Christmas Message
TTITLE37=Narrative
EXTD=
EXTT0=
EXTT1=
EXTT2=
EXTT3=
EXTT4=
EXTT5=
EXTT6=
EXTT7=
EXTT8=
EXTT9=
EXTT10=
EXTT11=
EXTT12=
EXTT13=
EXTT14=
EXTT15=
EXTT16=
EXTT17=
EXTT18=
EXTT19=
EXTT20=
EXTT21=
EXTT22=
EXTT23=
EXTT24=
EXTT25=
EXTT26=
EXTT27=
EXTT28=
EXTT29=
EXTT30=
EXTT31=
EXTT32=
EXTT33=
EXTT34=
EXTT35=
EXTT36=
EXTT37=
PLAYORDER=
